# xmcd CD database file
# Copyright (C) 1993-1996 Ti Kan
#
# Track frame offsets:
#	150
#	10160
#	21975
#	37672
#	50750
#	63232
#	76075
#	89135
#
# Disc length: 1365 seconds
#
# Revision: 1
# Processed by: cddbd v1.4b41PL1 Copyright (c) Steve Scherf et al.
# Submitted via: CDValet v3.30 - Copyright (c) 1997 Greg Leichner
#
DISCID=5a055308
DTITLE=Merle Haggard - Greatest Hits
DYEAR=1900
DGENRE=
TTITLE0=Mama Tried
TTITLE1=Working Man Blues
TTITLE2=Hungry Eyes
TTITLE3=Everybody's Had The Blues
TTITLE4=Okie From Muskogee
TTITLE5=Sing Me Back Home
TTITLE6=Swinging Doors
TTITLE7=I'm A Lonesome Fugitive
EXTD=
EXTT0=
EXTT1=
EXTT2=
EXTT3=
EXTT4=
EXTT5=
EXTT6=
EXTT7=
PLAYORDER=
